HIERARCHY
ROOT Hip
{
  OFFSET 0.0 0.0 0.0
  CHANNELS 6 Xposition Yposition Zposition Xrotation Yrotation Zrotation
  JOINT LowerSpine
  {
    OFFSET 0.0 0.061367 -0.03653
    CHANNELS 3 Xrotation Yrotation Zrotation
    JOINT MiddleSpine
    {
      OFFSET 0.0 0.056002 0.002633
      CHANNELS 3 Xrotation Yrotation Zrotation
      JOINT Chest
      {
        OFFSET 0.0 0.069296 -0.013882
        CHANNELS 3 Xrotation Yrotation Zrotation
        JOINT Neck
        {
          OFFSET 0.0 0.156156 -0.002923
          CHANNELS 3 Xrotation Yrotation Zrotation
          JOINT Head
          {
            OFFSET 0.0 0.088183 0.023986
            CHANNELS 3 Xrotation Yrotation Zrotation
            End Site
            {
              OFFSET 1e-06 0.123215 0.003678
            }
          }
        }
        JOINT LClavicle
        {
          OFFSET 0.014189 0.150698 0.046467
          CHANNELS 3 Xrotation Yrotation Zrotation
          JOINT LShoulder
          {
            OFFSET 0.082893 0.021616 -0.034976
            CHANNELS 3 Xrotation Yrotation Zrotation
            JOINT LForearm
            {
              OFFSET 0.195645 -0.000695 -0.001695
              CHANNELS 3 Xrotation Yrotation Zrotation
              JOINT LHand
              {
                OFFSET 0.163209 0.000474 -0.000977
                CHANNELS 3 Xrotation Yrotation Zrotation
                End Site
                {
                  OFFSET 0.0 0.006864 0.0
                }
              }
            }
          }
        }
        JOINT RClavicle
        {
          OFFSET -0.014189 0.150698 0.046467
          CHANNELS 3 Xrotation Yrotation Zrotation
          JOINT RShoulder
          {
            OFFSET -0.082908 0.021619 -0.034982
            CHANNELS 3 Xrotation Yrotation Zrotation
            JOINT RForearm
            {
              OFFSET -0.195645 -0.000695 -0.001695
              CHANNELS 3 Xrotation Yrotation Zrotation
              JOINT RHand
              {
                OFFSET -0.163209 0.000474 -0.000977
                CHANNELS 3 Xrotation Yrotation Zrotation
                End Site
                {
                  OFFSET 0.0 0.006864 0.0
                }
              }
            }
          }
        }
      }
    }
  }
  JOINT RThigh
  {
    OFFSET -0.072558 0.02774 -0.005953
    CHANNELS 3 Xrotation Yrotation Zrotation
    JOINT RShin
    {
      OFFSET -0.005253 -0.285537 0.0
      CHANNELS 3 Xrotation Yrotation Zrotation
      JOINT RFoot
      {
        OFFSET 0.0 -0.28038 0.0
        CHANNELS 3 Xrotation Yrotation Zrotation
        JOINT RToe
        {
          OFFSET 0.0 -0.030816 0.064441
          CHANNELS 3 Xrotation Yrotation Zrotation
          End Site
          {
            OFFSET 0.0 0.0 0.043231
          }
        }
      }
    }
  }
  JOINT LThigh
  {
    OFFSET 0.072557 0.027741 -0.005953
    CHANNELS 3 Xrotation Yrotation Zrotation
    JOINT LShin
    {
      OFFSET 0.005253 -0.285539 0.0
      CHANNELS 3 Xrotation Yrotation Zrotation
      JOINT LFoot
      {
        OFFSET 0.0 -0.28038 0.0
        CHANNELS 3 Xrotation Yrotation Zrotation
        JOINT LToe
        {
          OFFSET 0.0 -0.030816 0.064441
          CHANNELS 3 Xrotation Yrotation Zrotation
          End Site
          {
            OFFSET 0.0 0.0 0.043231
          }
        }
      }
    }
  }
}
MOTION
Frames: 15
Frame Time: 0.03333333333333333
-0.028738 0.545574 -0.070665 6.943509 -1.154829 -1.341957 2.173293 -0.063393 -0.650243 -0.028723 1.38965 -0.071159 -4.279029 4.443646 -0.964507 -0.351525 0.386189 0.383031 0.105768 -0.189895 -0.039366 -1.161634 -2.998403 -3.854137 19.844603 -16.511799 -39.358597 10.056273 -38.991978 2.380348 0.18979 0.282562 -0.186986 -2.607257 1.939689 5.266256 12.248675 20.265316 41.499287 5.956158 33.365894 -4.452513 0.102857 -0.433713 -0.029718 -25.003969 -0.298198 -7.17358 22.317944 -2.339185 5.510085 -2.399521 1.635502 0.179475 0.081278 0.613449 0.116407 -15.353926 6.829612 13.755469 15.078012 7.291706 -8.716369 -3.056439 -0.718143 0.051665 0.136441 -0.177698 -0.101607 
-0.028191 0.545495 -0.073159 3.914504 -0.372297 -1.764585 1.876758 -0.281184 -0.158829 -0.491281 1.845287 0.61529 -4.438404 3.914761 1.130525 -0.078185 0.503137 -0.107751 0.095982 -0.345046 -0.09666 -0.825776 -4.434758 -4.702855 19.118017 -14.675278 -41.872559 9.105485 -39.455807 5.105221 0.177983 0.301392 -0.200342 -2.886692 1.49883 5.590776 13.361847 16.085556 42.586285 7.358312 38.142128 -6.693505 -0.124849 -0.377123 -0.048344 -19.334934 -2.659326 -7.208663 15.879185 -3.062737 5.764743 -1.777611 1.274495 -0.225457 -0.01284 0.628356 0.195353 -11.842439 5.900725 12.638961 10.699062 5.338358 -7.620965 -2.773865 -0.358754 0.537741 0.161349 -0.286176 -0.080956 
-0.026589 0.549342 -0.072531 2.738953 0.190418 -2.016059 1.753713 -0.343064 -0.187887 -0.462223 1.936834 0.700373 -4.118664 3.402743 1.405822 0.020517 0.475384 -0.151833 0.082221 -0.301649 -0.097948 -0.819317 -4.348956 -5.43966 18.102327 -14.407515 -43.183071 7.11853 -37.761047 4.850569 0.143471 0.264073 -0.173098 -2.669311 1.548625 5.418576 10.958576 13.190557 43.013226 3.780981 40.966728 -6.324352 -0.089215 -0.353988 -0.039434 -16.764008 -3.718146 -7.29603 12.627402 -2.972125 5.484795 -1.795998 1.38523 -0.174615 0.005207 0.613016 0.187426 -9.750373 4.907798 11.599308 9.50059 4.431932 -6.589694 -3.194281 -0.159885 0.704659 0.132477 -0.213283 -0.046075 
-0.026213 0.555024 -0.070224 1.754121 0.082881 -2.398394 1.682143 -0.366738 -0.149905 -0.388924 1.869584 0.7319 -3.840725 3.145435 1.295267 0.101602 0.444448 -0.201517 0.07504 -0.297814 -0.089126 -0.847308 -4.147302 -6.121061 17.105095 -14.66358 -44.211258 6.363662 -36.343304 4.560288 0.132855 0.247193 -0.167824 -2.471306 1.441545 5.315581 8.282613 11.909067 43.520222 1.838568 43.476986 -6.369952 -0.083296 -0.331844 -0.035202 -14.731656 -3.966624 -6.389166 10.9629 -2.70137 4.895432 -1.731067 1.46929 -0.127493 0.010711 0.585101 0.180819 -8.162824 4.380594 10.782495 8.488165 3.916983 -5.775373 -3.42171 0.038823 0.827399 0.126144 -0.186153 -0.036884 
-0.030104 0.556017 -0.067166 1.111761 -0.424003 -2.526665 1.614135 -0.374542 -0.142268 -0.239837 1.853373 0.683862 -3.399494 2.883842 1.127583 0.144501 0.432057 -0.273101 0.072986 -0.295475 -0.085061 -0.806363 -3.984129 -6.69952 16.146595 -15.119388 -44.922871 5.763777 -35.244137 4.347161 0.128847 0.238101 -0.165421 -2.280307 1.203784 5.107244 4.218827 10.63193 43.732521 -0.738463 47.501495 -7.24583 -0.065963 -0.323399 -0.031116 -12.658829 -3.595112 -5.239226 9.024279 -2.336768 4.322954 -1.826947 1.538587 -0.087868 0.006846 0.575277 0.179872 -6.667142 3.523137 10.130376 7.372017 3.402135 -4.947969 -3.711191 0.341312 0.973002 0.12728 -0.168577 -0.030413 
-0.033958 0.553321 -0.06403 0.818357 -0.865474 -2.457398 1.544934 -0.346249 -0.184116 -0.086195 1.817628 0.549256 -2.744499 2.719037 1.145873 0.09741 0.408707 -0.346632 0.070119 -0.254574 -0.081775 -0.795631 -3.798443 -7.170274 15.559658 -15.425492 -45.589733 5.098783 -33.91291 4.010544 0.11938 0.215551 -0.153164 -2.044975 0.980285 4.664556 -1.247877 9.12551 42.939613 -4.292032 53.878857 -8.89425 -0.022686 -0.306869 -0.02295 -10.414902 -2.785051 -4.193783 6.715894 -1.839371 3.910068 -2.162675 1.707013 0.011851 0.000201 0.541193 0.168496 -5.321748 2.313536 9.657467 6.35983 2.924869 -3.830756 -4.013613 0.72369 1.088155 0.12295 -0.136911 -0.016081 
-0.038326 0.549137 -0.059668 0.890283 -0.984527 -2.28407 1.554665 -0.284122 -0.266772 -0.06264 1.762398 0.398216 -2.517977 2.45772 1.195302 0.078686 0.368249 -0.372474 0.063287 -0.188 -0.075371 -0.828551 -3.490107 -7.543741 15.516171 -15.480927 -46.591614 4.554955 -31.658966 3.585342 0.10078 0.174668 -0.131123 -1.72775 0.750338 4.079248 -6.965457 8.1038 41.601704 -7.929506 62.059284 -10.874724 0.026489 -0.271805 -0.012001 -8.428295 -1.650618 -3.610303 4.692435 -1.256976 3.629099 -2.570327 1.834666 0.150897 -0.002655 0.475534 0.149794 -4.135653 1.302686 9.462479 5.905402 2.538773 -2.489552 -4.400899 1.194391 1.180024 0.109294 -0.090962 0.000977 
-0.042493 0.54582 -0.052041 1.045691 -1.158052 -2.2181 1.503398 -0.228115 -0.314565 -0.100231 1.630509 0.294398 -2.220618 2.115906 1.303212 0.075565 0.337427 -0.400074 0.053464 -0.146114 -0.067247 -0.877141 -3.102218 -7.9922 15.750517 -15.579185 -47.82444 4.251405 -29.028971 3.229651 0.08497 0.137679 -0.115323 -1.402374 0.544614 3.545813 -12.100846 7.866256 39.976807 -8.804038 71.29612 -14.748779 0.050364 -0.230117 -0.004263 -6.533724 -0.786232 -3.146251 3.065627 -0.866013 3.315475 -2.827669 1.900051 0.272971 -0.005683 0.409453 0.136499 -2.543706 0.470114 9.459929 5.067597 2.306999 -1.345655 -4.714488 1.661124 1.306159 0.094211 -0.052164 0.010914 
-0.043375 0.54334 -0.039839 1.031105 -1.377079 -2.082203 1.344385 -0.130439 -0.293374 -0.089678 1.597899 0.140115 -1.598787 1.62125 1.399873 -0.013833 0.279587 -0.450671 0.04351 -0.093196 -0.052202 -0.932046 -2.556154 -8.669975 15.93359 -15.241323 -49.264114 3.6966 -26.864878 2.529006 0.067238 0.104397 -0.087755 -1.002989 0.235138 3.001451 -17.112202 7.741016 37.892487 -1.762448 81.158646 -26.709835 0.081021 -0.189152 0.002894 -4.515841 -0.031269 -3.060459 1.56101 -0.378442 2.85035 -2.988451 1.965307 0.438883 0.012745 0.346546 0.116845 -0.255627 -0.278191 8.892943 3.939172 2.261214 -0.422882 -4.921865 2.110872 1.443554 0.069719 -0.004392 0.02385 
-0.04251 0.543018 -0.028813 0.85182 -1.697073 -2.00109 1.138657 -0.042072 -0.240876 -0.113524 1.636286 0.004005 -1.251157 1.196143 1.333756 -0.105009 0.247159 -0.523606 0.034354 -0.063832 -0.036497 -1.001215 -2.136149 -9.401939 16.447886 -14.691515 -50.428844 3.514672 -25.441431 1.983356 0.053257 0.086161 -0.06486 -0.675577 -0.111136 2.567525 -21.522085 7.910163 35.849152 52.24308 86.805733 -84.776596 0.094374 -0.166838 0.005483 -3.149613 0.673421 -3.193269 0.693648 0.002249 2.385504 -2.995565 2.007246 0.574355 0.031954 0.308499 0.103622 1.670305 -0.772139 8.299186 2.766579 2.228112 0.213193 -5.070387 2.444292 1.587375 0.055092 0.023003 0.028768 
-0.041492 0.544759 -0.018412 0.599186 -1.661285 -1.961569 0.920363 0.046359 -0.156662 -0.141281 1.663701 -0.127953 -0.948281 0.905522 1.236478 -0.203227 0.23724 -0.57465 0.028515 -0.055586 -0.024811 -1.104245 -1.905335 -10.093205 17.424538 -14.24263 -51.080524 3.820518 -24.474899 1.58806 0.042604 0.078467 -0.047864 -0.449367 -0.381224 2.281068 -24.875544 8.156032 33.411968 117.514442 84.795753 -152.840668 0.081075 -0.144369 0.00348 -2.072608 1.262968 -3.469301 0.363538 0.35887 2.028965 -2.948734 2.004268 0.662899 0.044841 0.279751 0.092862 3.484912 -0.83747 7.873077 1.879 2.405619 0.606622 -5.315979 2.724568 1.724257 0.042612 0.035182 0.025175 
-0.039088 0.548808 -0.011495 0.536786 -1.705898 -2.050685 0.687059 0.114981 -0.069058 -0.163676 1.677077 -0.213604 -0.680803 0.642866 1.177945 -0.289282 0.207985 -0.59585 0.021315 -0.049243 -0.013835 -1.260996 -1.75868 -10.805246 18.228315 -14.054687 -51.654873 3.830058 -23.273569 1.153007 0.024966 0.055818 -0.021972 -0.271886 -0.399282 2.174742 -26.609129 8.460302 31.555361 132.360306 82.070877 -169.351837 0.047641 -0.09648 0.000534 -1.285441 1.419637 -3.626416 0.116873 0.645539 1.659381 -2.942213 1.945892 0.712367 0.052192 0.221378 0.070376 4.632827 -0.830599 7.430308 1.227151 2.428441 1.009175 -5.532983 3.020433 1.842873 0.023264 0.05497 0.026864 
-0.036393 0.552385 -0.007987 0.448234 -1.742921 -2.106948 0.494588 0.153558 -0.001955 -0.167507 1.70587 -0.266073 -0.453332 0.509991 1.100631 -0.34856 0.200543 -0.607403 0.015944 -0.053143 -0.005459 -1.367207 -1.658573 -11.367925 18.759651 -14.075601 -51.914337 3.825205 -22.317123 0.844649 0.012871 0.041423 -0.004577 -0.14945 -0.404278 2.018336 -27.968798 9.098126 30.196114 137.377274 79.991997 -175.326782 0.015925 -0.057738 -0.001598 -0.876536 1.488681 -3.748027 0.118611 0.80389 1.393996 -2.914181 1.896267 0.739308 0.056839 0.180704 0.056775 5.444417 -0.731553 7.020677 0.693998 2.39095 1.328561 -5.696841 3.194591 1.923681 0.00934 0.065634 0.02501 
-0.033572 0.554061 -0.00703 0.47534 -1.570528 -2.059905 0.347155 0.172716 0.041517 -0.182199 1.741004 -0.296253 -0.501524 0.482499 1.030116 -0.368349 0.200378 -0.615585 0.011091 -0.055852 -0.000777 -1.418844 -1.542827 -11.772626 19.0741 -14.237355 -51.956429 3.897583 -21.623421 0.569028 0.002694 0.030375 0.009418 -0.060618 -0.436901 1.724009 -29.757256 10.521562 28.839258 139.570328 79.026482 -177.972916 -0.002213 -0.032149 -0.00239 -0.77073 1.631441 -4.034569 0.206963 0.887554 1.258375 -2.901785 1.84451 0.743879 0.059562 0.155056 0.049083 5.784041 -0.519759 6.653677 0.325853 2.383952 1.570988 -5.793602 3.277987 1.96445 0.001599 0.071662 0.023898 
-0.030895 0.555286 -0.006672 0.57404 -1.408246 -2.008445 0.216786 0.174582 0.068408 -0.190759 1.781943 -0.320323 -0.617193 0.509549 0.959627 -0.416483 0.194206 -0.608368 0.007684 -0.054052 0.002124 -1.435311 -1.453278 -12.065328 19.38516 -14.449407 -51.907066 4.044472 -21.147371 0.363667 -0.003815 0.024065 0.017029 -0.003097 -0.497711 1.473402 -31.079821 11.830099 27.706087 140.777176 78.508904 -179.374374 -0.013604 -0.015387 -0.003181 -0.786106 1.751127 -4.331536 0.312761 0.93616 1.19404 -2.90757 1.811829 0.751419 0.063699 0.141198 0.043946 5.924608 -0.290387 6.3648 0.08723 2.409614 1.69219 -5.86217 3.316592 1.982044 -0.002203 0.073382 0.022297 
